<svg viewBox="-32 -32 64 64" xmlns="http://www.w3.org/2000/svg">
    <path d="M 10.176380902050415 27.97877056362575 L 19.142135623730947 22.80238966157534 L 14.14213562373095 14.142135623730951 L 19.318516525781362 5.176380902050419 L 29.318516525781362 5.17638090205042 L 29.318516525781366 -5.176380902050412 L 19.318516525781366 -5.176380902050413 L 14.142135623730951 -14.14213562373095 L 19.142135623730955 -22.802389661575333 L 10.176380902050424 -27.978770563625748 L 5.17638090205042 -19.318516525781362 L -5.176380902050416 -19.318516525781366 L -10.176380902050413 -27.978770563625755 L -19.142135623730947 -22.802389661575344 L -14.14213562373095 -14.142135623730955 L -19.318516525781362 -5.176380902050431 L -29.318516525781362 -5.1763809020504326 L -29.31851652578137 5.176380902050404 L -19.31851652578137 5.176380902050406 L -14.142135623730967 14.142135623730937 L -19.142135623730955 22.802389661575333 L -10.176380902050436 27.978770563625744 L -5.176380902050432 19.318516525781362 L 5.176380902050415 19.318516525781366 L 10.176380902050415 27.97877056362575 L 19.142135623730947 22.80238966157534" stroke="#000000" stroke-width="2" fill="transparent" />
    <!--<path d="M 3.9999999999999996 6.92820323027551 L 8.0 4.898587196589413e-16 L 4.000000000000003 -6.928203230275508 L -3.999999999999998 -6.9282032302755105 L -8.0 -1.4695761589768238e-15 L -4.0000000000000036 6.928203230275507 L 3.9999999999999996 6.92820323027551 L 8.0 4.898587196589413e-16" stroke="#000000" stroke-width="2" fill="transparent" />-->
    <circle cx="0" cy="0" r="7.5" stroke="#000000" stroke-width="2" fill="transparent" />
</svg>
